<svg xmlns="http://www.w3.org/2000/svg" fill="none" viewBox="0 0 528 128">
  <path fill="#000" d="M206.5 32.9v12.8h.2c2.5-3.8 5.6-7 9.3-9.3a22 22 0 0 1 11.4-3.5c6 0 11.3 2.8 15.7 8.3a36.8 36.8 0 0 1 6.6 23.4 39 39 0 0 1-8 25.4 24.1 24.1 0 0 1-19.3 10 19.8 19.8 0 0 1-16-8.3v25c0 4 .7 6.5 2 7.6 1.5 1.2 4.4 1.8 8.9 1.9v1.8h-29.7v-1.8c4.5-.1 7.4-.7 8.8-1.9 1.3-1.1 2-3.6 2-7.6V48.5c0-3-.4-5-1.2-6.2-.8-1.2-2-1.8-3.8-1.8a14 14 0 0 0-5 1.3l-.7-1.7 17.2-7.2h1.6Zm130.7 0c5.7 0 10.2 1.5 13.6 4.6 3.3 3.1 5 7.3 5 12.6v34.4c0 3.3.3 5.6.8 6.8.6 1.2 1.5 1.8 2.7 1.8 2 0 4.7-1.8 8.2-5.5v2.9A28.2 28.2 0 0 1 361 97c-2.6 2-4.8 3-6.6 3-2 0-3.6-1-4.8-3-1.3-2-2-4.7-2-8a84.4 84.4 0 0 1-12 8.7 18.3 18.3 0 0 1-9 2.2 13 13 0 0 1-10.2-4.4 17 17 0 0 1-3.8-11.5c0-5.5 2.6-10.2 8-14.1 5-4 14-8.3 27-13 0-5-.2-8.8-.8-11.3-.5-3.1-1.6-5.4-3.4-7a14.6 14.6 0 0 0-8.3-2.6c-3.5 0-6.2.8-8 2.5-2 1.7-3 4-3 7 0 6.2-1.7 9.3-5.2 9.3a4 4 0 0 1-3.3-1.6c-.8-1-1.2-2.3-1.2-4 0-4 2-7.7 6.2-11.1 4.1-3.5 9.6-5.2 16.5-5.2Zm118.2 0c7.5 0 14.2 3 20 9.3a31.7 31.7 0 0 1 8.7 22.7 46 46 0 0 1-3 16.5c-2 5.4-5.3 9.8-10 13.3a25.7 25.7 0 0 1-35.7-4.5 33.7 33.7 0 0 1-8.8-23 37 37 0 0 1 8.4-24.4 25.5 25.5 0 0 1 20.4-10ZM147.6 2.4l31.2 76.2c2.5 6.7 4.7 11 6.5 12.8 2.3 2.7 5.7 4.2 10 4.7V98h-32.2v-1.8c3.7-.2 6.3-.7 7.7-1.6 1.5-1 2.2-2.5 2.2-4.7 0-1.5-1.2-5.3-3.7-11.5l-5-12.4h-38.6L120 80.2a31 31 0 0 0-3 10.1c.2 2.3 1 3.8 2.5 4.5 1.5.7 4 1.1 7.9 1.3V98h-27.2v-1.8a13 13 0 0 0 8.1-3.6c2-2 4.1-5.7 6.4-11l31.8-79.1h1.1Zm119-2.4v46.4c8.3-9 16-13.5 23-13.5 9.4 0 14.1 6.3 14.1 19v34.8c0 3.6.7 6 2 7.4 1.4 1.2 4.1 2 8.2 2V98h-28.3v-1.8c3.9 0 6.6-.8 8-2 1.4-1.3 2.1-3.8 2.1-7.4V54.5c0-10.4-3.4-15.5-10.3-15.5-5.6 0-11.9 3.7-18.7 11.1v36.6c0 3.7.7 6.2 2 7.4 1.4 1.3 4 2 8.1 2V98h-28.4v-1.8c4 0 6.8-.7 8.2-2 1.4-1.2 2-3.7 2-7.4V14.5c0-2.5-.3-4.3-1-5.4-.7-1-2-1.6-3.6-1.6-2 0-3.9.4-5.6 1.2l-.7-1.5L265 0h1.6Zm114.2 32.9v13.7c8.3-9.2 15.9-13.7 23-13.7 9.4 0 14.2 6.3 14.2 19v34.8c0 3.8.6 6.3 2 7.5 1.3 1.2 4 1.8 8.3 2v1.7h-28.6v-1.8c4.1 0 6.8-.7 8.2-2 1.4-1.2 2-3.7 2-7.4V54.5C410 44 406.5 39 399.5 39c-5.6 0-11.9 3.7-18.7 11.1v36.6c0 3.9.6 6.4 1.8 7.6 1.2 1 4 1.6 8.3 1.8V98h-28.4v-1.8c4.1 0 6.9-.7 8.2-2 1.4-1.2 2-3.7 2-7.4v-37c0-3.6-.3-6-1-7.3-.8-1.3-2.2-2-4.2-2a15 15 0 0 0-5.3 1.4l-.7-1.5 17.9-7.5h1.4ZM223.4 40c-6.6 0-12.3 3.5-17 10.4v29.8a15.9 15.9 0 0 0 16.3 16.2c5.4 0 10-2.5 13.8-7.6a33 33 0 0 0 5.6-20c0-9-1.7-16.1-5.2-21.2a16 16 0 0 0-13.5-7.6ZM454 36.4c-5.2 0-9.5 2.3-13 7a29.5 29.5 0 0 0-5.2 18.1 48 48 0 0 0 6 25.2c4 6.5 9.4 9.8 16 9.8 4.2 0 7.7-1.5 10.5-4.5a22 22 0 0 0 5.4-9.9c.8-3.5 1.3-7.3 1.3-11.1 0-11-2-19.5-5.8-25.6-3.9-6-9-9-15.2-9ZM347.7 60.1a72.7 72.7 0 0 0-20.4 10.3c-4.2 3.4-6.3 7-6.3 11 0 3.8 1 6.8 2.8 9a9 9 0 0 0 7.2 3.2c2.4 0 4.7-.6 6.7-1.7 2.7-1.3 6-3.5 10-6.5V60Zm-203-42.6-17.6 45h35.8l-18.2-45Zm377.2 15.4h1.9v21.6h-1.9c-.2-5.6-1.9-10-4.9-13.4-3-3.4-7-5.1-12-5.1-3.2 0-6 1-8.3 2.9a9 9 0 0 0-3.6 7.4c0 5.7 4 10.4 12.2 14a75 75 0 0 1 16.2 8.6c4.2 3.7 6.4 8.2 6.5 13.4 0 5.3-2 9.7-6.2 13a23 23 0 0 1-14.2 4.6c-3.7 0-7-.5-10.2-1.4a28 28 0 0 0-6-1.4c-1.4 0-2.3.6-2.6 1.8H487V76.3h1.8c.4 6 2.3 11 5.7 14.8 3.4 3.8 8 5.7 13.6 5.7 3.4 0 6.3-1 8.8-2.8 2.3-2 3.5-4.7 3.5-8.2a12 12 0 0 0-3.5-8.9 32.6 32.6 0 0 0-8.3-5.8c-3.7-2-7-3.6-10-5-3-1.5-5.7-3.5-8.1-6.1a13.4 13.4 0 0 1-3.6-9.3c0-5.3 1.7-9.6 5.3-12.9 3.6-3.3 8-5 13.5-5 2.1 0 4.5.6 7.2 1.5 3 .8 5 1.3 6 1.3 1.4 0 2.4-1 3-2.7ZM65.2 70.3a13 13 0 0 1-6.7 6.6c-4.8 2-10 2.9-15 2.7a8 8 0 0 1-6.8-11.3 60.8 60.8 0 0 1 19.7-24A8 8 0 0 1 69 50.6a42 42 0 0 1-3.8 19.8Zm18.7-44c2.3-3.3 3.3-7.5 2.4-12a14.8 14.8 0 0 0-23-9c-12 8.5-9.6 26.3-13.4 33.3a60.4 60.4 0 0 1-38.6 29.8 15 15 0 1 0 12.1 26.8c12-8.4 27.9-8.4 39.8 0a14.9 14.9 0 0 0 23-8.9c1-4.4 0-8.6-2.3-12a42.2 42.2 0 0 1 0-48Z"/>
</svg>