<svg xmlns="http://www.w3.org/2000/svg" viewBox="0 0 270 40">
  <path d="M250.151635 0C261.113584 0 270 8.95425662 270 19.9998919c0 11.0456354-8.886416 19.999892-19.848365 19.999892h-92.625703c-10.961949 0-19.848365-8.9542566-19.848365-19.999892C137.677567 8.95425662 146.563983 0 157.525932 0h92.625703Zm0 2.22221022h-92.625703c-9.743955 0-17.642991 7.95933918-17.642991 17.77768168s7.899036 17.7776818 17.642991 17.7776818h92.625703c9.743955 0 17.642991-7.9593393 17.642991-17.7776818S259.89559 2.22221022 250.151635 2.22221022ZM157.9229 7.55551473c1.631976 0 3.087523.26666523 4.410747.88888409 1.23501.57777465 2.205374 1.33332613 2.955201 2.39998708.749827 1.0222166 1.102687 2.177766 1.146795 3.4666479h-3.528598c-.10794-1.0712481-.691839-2.0354999-1.58787-2.6222081-.882149-.6222188-2.073051-.9333283-3.48449-.9333283-.888268-.029478-1.773324.1216768-2.602342.4444421-.66907.2818364-1.24874.7429644-1.676084 1.3333261-.400829.5385185-.617504 1.1935085-.617504 1.8666566-.00733.5369617.146403 1.0636433.441074 1.5111029.282616.3955934.642936.7284087 1.05858.9777725.441075.3111095.926257.5333305 1.455547.7111073l1.190902.3999978 2.646448.7111073c1.706612.2936762 3.313578 1.0116383 4.675393 2.0888776 1.541997 1.1370586 2.432136 2.9641469 2.381804 4.8888625.04744 2.7310878-1.585155 5.2075202-4.101996 6.2221886-1.323224.6222189-2.999308.9333283-4.89593.9333283-1.616741.0296314-3.222537-.2728087-4.7195-.8888841-1.323224-.5777747-2.381804-1.3777703-3.131631-2.4444312-.789354-1.1366834-1.233757-2.4800711-1.279117-3.8666458h3.705028c.088215.8888841.35286 1.6444355.88215 2.2222102.441075.5777747 1.102687 1.0222167 1.896622 1.3333261 1.763245.6095012 3.682572.5780544 5.425219-.0888884.793935-.3555536 1.41144-.7999957 1.896622-1.3777703.441075-.6222189.705719-1.3333261.705719-2.1333218 0-.7111073-.220537-1.3333261-.617504-1.7777682-.441075-.444442-.970365-.8444399-1.676084-1.1555493-.617505-.2666652-1.323225-.4888863-2.028944-.7111073l-3.175739-.8888841c-1.940729-.5333304-3.528598-1.3333261-4.631285-2.3555428-1.147997-1.0563501-1.777046-2.5678434-1.720192-4.133311 0-1.3777703.396968-2.6666522 1.146795-3.6888689.749827-1.06666095 1.764299-1.86665663 3.087523-2.44443128 1.323225-.62221886 2.778771-.88888409 4.410748-.88888409h-.044107Zm34.315617.31110943V23.7332051c0 1.1111051.264645 2.0888776.749827 2.9777617.441075.8888841 1.146795 1.5111029 2.073052 1.9999892.979375.5150635 2.071158.7748138 3.175738.7555515 1.119442.0267616 2.22731-.2332047 3.219846-.7555515.882149-.4444421 1.587869-1.1555493 2.073051-1.9999892.441075-.8888841.70572-1.8666566.70572-2.9777617V7.86662416h3.705028V24.0443145c0 1.733324-.441075 3.2444269-1.190902 4.5777531-.838042 1.3333261-1.940729 2.3555428-3.396276 3.1110943-1.592276.7787598-3.347197 1.159863-5.116467 1.1111051-1.754444.0416237-3.493409-.3392982-5.07236-1.1111051-2.895438-1.4552042-4.686406-4.4745075-4.587178-7.7332916V7.86662416h3.660921Zm57.913118-.31110943c4.044989-.10484451 7.774566 2.19174106 9.527215 5.86663497.970365 1.8666566 1.455547 4.133311 1.455547 6.7555191 0 2.622208-.485182 4.8888624-1.455547 6.755519-1.786539 3.6438489-5.494183 5.9269291-9.527215 5.866635-4.045916.0666875-7.76966-2.2157401-9.571323-5.866635-.995611-2.1071505-1.479412-4.4227465-1.411439-6.755519 0-2.6666523.441075-4.8888625 1.411439-6.7555191 1.793387-3.65854298 5.522473-5.94424441 9.571323-5.86663497Zm-63.514768.31110943v3.24442694h-7.586486v21.333218h-3.66092V11.0666069h-7.630594V7.86662416h18.878Zm32.639534 0c2.381804 0 4.410748.48888625 6.175047 1.46665874 1.701256.976154 3.069699 2.4480022 3.925565 4.2221994.88215 1.8222124 1.367332 3.9999784 1.367332 6.5777422 0 2.5333197-.441075 4.7555299-1.367332 6.5777423-.871884 1.8034255-2.273167 3.2929872-4.01378 4.2666436-1.956005 1.0331824-4.144165 1.5384639-6.351477 1.4666587h-7.895238V7.86662416h8.159883Zm17.510668 0V32.4442691h-3.66092V7.86662416h3.66092Zm13.364566 3.06665014c-1.411439 0-2.646449.3555536-3.749135 1.0666609-1.165981.7529243-2.086347 1.8348813-2.646449 3.1110943-.617505 1.3333261-.970365 3.0666501-.970365 5.0666393 0 1.9999891.35286 3.6444247.970365 5.022195 1.101776 2.5638197 3.62308 4.2107982 6.395584 4.1777552 1.367332 0 2.646449-.3555536 3.749136-1.0222167 1.102687-.7111072 1.984836-1.7777681 2.646448-3.1110943.617505-1.4222145.926257-3.1110943.926257-5.0666392.059694-1.7409909-.272031-3.473051-.970364-5.0666393-1.101776-2.5638197-3.62308-4.2107982-6.395584-4.1777552h.044107Zm-31.095772.1777768h-4.234317v18.0887911h3.969673c1.624354.0640081 3.23682-.3038658 4.675392-1.0666609 1.190902-.7111072 2.117159-1.7333239 2.734664-3.1110943.617505-1.3333261.882149-2.9777617.882149-4.8888625 0-1.9555449-.264644-3.5555363-.882149-4.8888624-.547737-1.2976637-1.489732-2.3868947-2.690556-3.1110943-1.370094-.7290353-2.906581-1.0815996-4.454856-1.0222167ZM13.2322433 13.3332613v19.9998919c0 3.6818785-2.9621386 6.6666307-6.61612167 6.6666307H0v-19.999892c0-3.6818784 2.96213855-6.6666306 6.61612163-6.6666306h6.61612167Zm66.1612162 0v19.9998919c0 3.6818785-2.9621385 6.6666307-6.6161216 6.6666307h-6.6161216v-19.999892c0-3.6818784 2.9621385-6.6666306 6.6161216-6.6666306h6.6161216ZM132.19011 0l-10.453472 10.6221648c-1.74974 1.7748688-4.133371 2.7676246-6.616122 2.7555407h-9.218462l26.420379 26.6220784h-9.394893c-2.467471 0-4.833035-.9916445-6.572014-2.7555407L92.6257028 13.3332613h13.2322432l10.453472-10.57772063C118.075717.9777725 120.413414 0 122.92754 0h9.26257ZM99.1536095 26.6665226c3.6539835 0 6.6161215 2.9847522 6.6161215 6.6666306 0 3.6818785-2.962138 6.6666307-6.6161215 6.6666307-3.6539831 0-6.6161217-2.9847522-6.6161217-6.6666307 0-3.6818784 2.9621386-6.6666306 6.6161217-6.6666306ZM92.6257028 0v13.3332613H79.3934595V6.66663065C79.3934595 2.98475221 82.3555981 0 86.0095812 0h6.6161216Zm-56.810431 13.3331523c2.4827506-.0119749 4.8663821.9807809 6.6161216 2.7556497l23.6857154 23.9110909h-9.3507852c-2.4827507.0119749-4.8663821-.980781-6.6161217-2.7556497L26.4644865 13.3331523h9.3507853Zm-2.7346637 13.3333703c3.6539831 0 6.6161217 2.9847522 6.6161217 6.6666306 0 3.6818785-2.9621386 6.6666307-6.6161217 6.6666307-3.653983 0-6.6161216-2.9847522-6.6161216-6.6666307 0-3.6818784 2.9621386-6.6666306 6.6161216-6.6666306ZM26.4644865 0v13.3332613H13.2322433V6.66663065C13.2322433 2.98475221 16.1943818 0 19.8483649 0h6.6161216Z"/>
</svg>